<svg width="243" height="35" viewBox="0 0 243 35" fill="none" xmlns="http://www.w3.org/2000/svg">
<path d="M119.242 17.9758L118.282 19.4017C116.829 18.3691 115.088 17.8176 113.304 17.8249C109.25 17.8742 105.212 20.6767 105.067 25.561C105.126 29.8263 108.553 33.1985 113.304 33.297C115.088 33.3044 116.829 32.7529 118.282 31.7202L119.242 33.1399C117.504 34.3614 115.429 35.0135 113.304 35.0062C107.322 35 103.343 30.7194 103.343 25.561C103.343 20.4026 107.322 16.1065 113.304 16.1065C115.429 16.0989 117.505 16.7522 119.242 17.9758Z" fill="#96A3BC"/>
<path d="M132.134 16.5254L138.717 34.5628H136.903L135.117 29.6631H127.047L125.245 34.5628H123.431L130.027 16.5254H132.134ZM127.667 27.9631H134.5L131.082 18.6103L127.667 27.9631Z" fill="#96A3BC"/>
<path d="M145.392 16.5254L152.179 26.3586L158.965 16.5254H161.125V34.5628H159.419V18.8567L152.176 29.3644L144.926 18.8567V34.5628H143.217V16.5254H145.392Z" fill="#96A3BC"/>
<path d="M171.977 16.5254C175.778 16.5254 178.875 19.2971 178.875 23.0942C178.875 26.8914 175.79 29.6631 171.977 29.6631H168.14V34.5628H166.431V16.5254H171.977ZM168.14 27.957H171.977C174.849 27.957 177.169 25.9675 177.169 23.0942C177.169 20.2209 174.849 18.2315 171.977 18.2315H168.14V27.957Z" fill="#96A3BC"/>
<path d="M189.503 16.5254L196.086 34.5628H194.272L192.495 29.6631H184.416L182.623 34.5628H180.812L187.396 16.5254H189.503ZM185.036 27.9631H191.878L188.451 18.6103L185.036 27.9631Z" fill="#96A3BC"/>
<path d="M202.295 16.5254V34.5628H200.586V16.5254H202.295Z" fill="#96A3BC"/>
<path d="M223.445 18.5481L222.335 19.82C220.784 18.4897 218.798 17.7732 216.754 17.8059C212.037 17.8059 208.511 20.8178 208.511 25.545C208.511 29.8041 212.167 33.2872 216.754 33.2872C218.324 33.2872 220.65 32.8253 221.9 31.7043L221.844 26.01H218.022V24.2269H223.544L223.621 32.3818C222.242 33.8785 219.82 35.0087 216.754 35.0087C211.288 35.0087 206.796 30.7927 206.796 25.5543C206.796 20.3866 210.76 16.1029 216.745 16.1029C219.204 16.063 221.591 16.9341 223.445 18.5481Z" fill="#96A3BC"/>
<path d="M229.868 16.5254L241.282 31.6833V16.5254H242.991V34.5628H241.266L229.852 19.3402V34.5628H228.143V16.5254H229.868Z" fill="#96A3BC"/>
<path d="M65.6022 16.5L72.1853 34.5497H68.2799L66.867 30.6755H60.4259L59.013 34.5497H55.1045L61.6968 16.5H65.6022ZM61.7709 26.9923H65.522L63.6465 21.8647L61.7709 26.9923Z" fill="#3B5998"/>
<path d="M79.2096 16.5V34.5497H75.5078V16.5H79.2096Z" fill="#3B5998"/>
<path d="M52.7911 33.7558H52.751C48.1021 33.7558 42.3951 33.6604 40.7941 33.6357L35.9015 25.4593L33.4707 29.6969L33.5138 29.7184L36.0465 31.0273L35.9077 31.0796L28.8372 33.8513L29.3585 28.1879L29.5128 26.5557L31.6352 28.4619C32.4619 26.993 33.2269 25.641 33.3689 25.3823C33.6218 24.9481 35.01 22.5614 35.8367 21.1478C35.8583 21.1786 35.8768 21.2125 35.8984 21.2464L36.2378 21.7884C37.2373 23.3898 38.2769 25.0651 38.536 25.4839C39.7699 27.4857 40.973 29.5029 42.1453 31.5354L48.8548 31.5139L42.8023 21.1324L36.756 10.7571L30.8146 21.1109C30.8045 21.133 30.7932 21.1546 30.7807 21.1755L26.1225 29.3212L26.0948 29.3674L25.629 28.5482L23.8798 25.4685L20.3292 19.4017L16.8526 25.4439C16.8431 25.4654 16.8317 25.486 16.8186 25.5055L11.997 33.8759L0.126479 33.8944H0L0.441134 33.1276L8.74247 18.5825L8.77641 18.524L19.3143 0.0400352L19.3389 0L19.8017 0.791465L24.8793 9.4945L26.0053 11.4285L28.0012 7.94853L25.3482 6.82446L32.4095 3.43687L32.2336 10.7356L29.9601 9.03872L27.304 13.6859L26.0207 15.9278L24.722 13.6674L24.6572 13.5504L19.3914 4.5209L10.7168 19.6357L10.6859 19.6973L3.92702 31.6494L10.7137 31.6278L14.8752 24.3938C14.8861 24.3734 14.8985 24.3538 14.9122 24.3352L20.2767 14.9793L20.7827 15.7985L25.8171 24.3599L26.0948 24.8372L28.1339 21.2802L28.8372 20.0484L28.8742 20.0176L36.793 6.31016C36.938 6.56269 37.1015 6.82446 37.2465 7.09239L44.7304 20.0176L52.4857 33.26L52.7572 33.7281L52.7911 33.7558Z" fill="#3B5998"/>
<path d="M99.0268 16.5V34.5466H95.7321L87.4092 23.6109V34.7037H83.7197V16.5H87.0174L95.3404 27.4388V16.5H99.0268Z" fill="#3B5998"/>
</svg>
